<?xml version="1.0" standalone="no"?>
<!DOCTYPE svg PUBLIC "-//W3C//DTD SVG 20010904//EN"
 "http://www.w3.org/TR/2001/REC-SVG-20010904/DTD/svg10.dtd">
<svg version="1.0" xmlns="http://www.w3.org/2000/svg"
 width="715.000000pt" height="576.000000pt" viewBox="0 0 715.000000 576.000000"
 preserveAspectRatio="xMidYMid meet">
<metadata>
Created by potrace 1.16, written by Peter Selinger 2001-2019
</metadata>
<g transform="translate(0.000000,576.000000) scale(0.100000,-0.100000)"
fill="#000000" stroke="none">
<path d="M2488 5012 l-178 -2 0 -75 0 -75 264 0 265 0 3 -27 c2 -16 1 -77 -2
-136 l-5 -109 -145 -84 c-80 -46 -156 -91 -170 -99 -14 -8 -67 -39 -117 -68
l-93 -52 3 -743 2 -744 145 -84 c80 -46 198 -114 263 -151 l117 -67 0 -138 0
-138 -265 0 -265 0 0 -75 0 -75 345 0 345 0 2 164 3 164 256 -146 c140 -81
267 -155 282 -164 14 -10 30 -18 35 -18 10 0 468 264 490 283 10 8 2 21 -40
59 -29 26 -57 48 -62 48 -5 0 -91 -47 -191 -105 -100 -58 -187 -105 -194 -105
-10 0 -284 157 -948 542 l-173 100 0 649 0 648 93 55 c50 30 135 79 187 110
52 31 96 53 97 49 2 -5 4 -361 5 -792 l3 -784 70 -43 c39 -24 73 -44 78 -44 4
0 7 185 7 411 l0 411 138 -129 c75 -70 382 -358 682 -638 299 -281 596 -558
660 -617 l115 -108 108 0 c60 0 107 4 105 9 -1 4 -102 102 -223 216 -121 114
-220 211 -220 216 0 5 106 70 235 145 129 74 239 139 244 144 7 7 12 1479 4
1484 -3 2 -393 227 -527 303 l-44 26 124 116 c68 63 162 153 209 198 l85 83
-108 0 -108 0 -147 -139 c-81 -76 -153 -146 -161 -155 -7 -9 -20 -16 -29 -16
-8 0 -74 34 -146 77 -274 159 -404 233 -414 233 -14 0 -415 -231 -424 -244
-11 -16 -10 -154 2 -161 5 -3 100 46 211 110 120 70 208 115 219 112 9 -2 265
-147 569 -322 l551 -318 0 -646 0 -647 -231 -133 c-126 -73 -236 -131 -244
-129 -8 2 -195 174 -417 383 -557 526 -613 579 -613 586 0 3 81 82 180 174 99
93 243 228 320 300 77 72 188 176 247 230 59 54 105 102 102 106 -6 11 -115
69 -129 69 -11 0 -121 -101 -654 -604 -129 -122 -242 -227 -253 -234 -17 -13
-18 8 -18 677 l0 691 -154 0 c-85 0 -160 1 -168 3 -7 1 -93 1 -190 -1z"/>
<path d="M3145 1588 c-3 -7 -4 -155 -3 -328 l3 -315 50 0 50 0 5 130 5 130 64
-120 c35 -66 68 -126 73 -132 12 -15 94 -17 103 -3 3 5 -33 86 -80 179 -47 94
-85 176 -85 182 0 7 36 69 81 140 44 70 78 133 74 138 -7 12 -84 15 -101 3 -6
-4 -38 -50 -70 -102 l-59 -95 -5 100 -5 100 -48 3 c-32 2 -49 -1 -52 -10z"/>
<path d="M3576 1592 c-5 -8 -8 -237 -7 -489 l1 -163 49 0 c35 0 51 4 55 16 3
9 6 84 6 166 0 83 2 149 5 146 3 -3 17 -48 31 -99 13 -52 27 -102 30 -112 5
-15 14 -17 52 -15 l46 3 30 113 c16 62 33 109 37 105 5 -5 10 -78 11 -163 l3
-155 47 -3 47 -3 3 168 c2 92 1 240 -2 328 l-5 160 -56 3 c-37 2 -59 -2 -66
-10 -6 -7 -28 -78 -50 -158 -22 -80 -44 -144 -49 -143 -5 1 -27 68 -48 150
-21 81 -44 151 -50 155 -15 10 -114 10 -120 0z"/>
</g>
</svg>
